<?xml version="1.0" encoding="utf-8"?>
<!-- Generator: Adobe Illustrator 27.1.1, SVG Export Plug-In . SVG Version: 6.00 Build 0)  -->
<svg version="1.1" id="Слой_1" xmlns="http://www.w3.org/2000/svg" xmlns:xlink="http://www.w3.org/1999/xlink" x="0px" y="0px"
	 viewBox="0 0 35.25 25.71" style="enable-background:new 0 0 35.25 25.71;" xml:space="preserve">
<style type="text/css">
	.st0{fill:#715EFA;}
</style>
<g>
	<g>
		<path class="st0" d="M11.35,9.73V8.17C11.23,8.2,11,8.26,10.61,8.3c-0.13,0.02-0.39,0.05-0.8,0.05c-0.2,0-0.61,0-0.92-0.18
			c-0.1-0.06-0.32-0.18-0.32-0.5c0-0.11,0-0.32,0.29-0.48c0.1-0.05,0.29-0.16,0.82-0.16c0.16,0,0.48,0,0.92,0.07
			c0.15,0.02,0.44,0.07,0.74,0.17V5.64c-0.13-0.06-0.38-0.19-0.82-0.27c-0.15-0.03-0.44-0.09-1-0.09c-0.19,0-0.56,0-1,0.17
			C8.37,5.51,8.07,5.62,7.76,5.94C7.66,6.04,7.45,6.25,7.28,6.7C7.23,6.85,7.11,7.15,7.11,7.72c0,0.17,0,0.52,0.17,0.94
			c0.06,0.14,0.17,0.42,0.5,0.73c0.1,0.09,0.3,0.27,0.71,0.43l2.84-0.09C11.33,9.74,11.34,9.73,11.35,9.73"/>
		<path class="st0" d="M14.74,8.15c-0.05,0.03-0.15,0.09-0.35,0.13c-0.07,0.01-0.2,0.04-0.42,0.04c-0.08,0-0.23,0-0.42-0.04
			c-0.07-0.02-0.2-0.05-0.35-0.13c-0.05-0.03-0.15-0.08-0.24-0.21c-0.03-0.04-0.09-0.12-0.09-0.29c0-0.06,0-0.17,0.09-0.29
			c0.03-0.04,0.09-0.12,0.24-0.2c0.05-0.03,0.15-0.08,0.36-0.12C13.61,7.02,13.75,7,13.97,7c0.07,0,0.22,0,0.42,0.04
			c0.07,0.01,0.2,0.04,0.35,0.12c0.05,0.03,0.15,0.08,0.24,0.2c0.03,0.04,0.09,0.12,0.09,0.29c0,0.06,0,0.17-0.09,0.29
			C14.95,7.98,14.89,8.06,14.74,8.15 M15.81,9.46c0.11-0.1,0.33-0.29,0.52-0.72c0.06-0.14,0.18-0.43,0.18-0.99
			c0-0.19,0-0.58-0.18-1.03c-0.06-0.15-0.18-0.45-0.51-0.77c-0.11-0.11-0.33-0.32-0.8-0.49c-0.16-0.06-0.47-0.17-1.05-0.17
			c-0.19,0-0.57,0-1.04,0.17c-0.16,0.06-0.47,0.17-0.8,0.48c-0.11,0.11-0.33,0.32-0.51,0.77c-0.06,0.15-0.18,0.45-0.18,1.03
			c0,0.18,0,0.54,0.18,0.97c0.06,0.14,0.18,0.43,0.51,0.73c0.07,0.06,0.19,0.17,0.38,0.28l3.11-0.1
			C15.68,9.56,15.75,9.51,15.81,9.46"/>
		<path class="st0" d="M21.51,8.22c-0.1,0.06-0.29,0.18-0.74,0.18c-0.15,0-0.44,0-0.74-0.18c-0.1-0.06-0.3-0.18-0.3-0.53
			c0-0.12,0-0.36,0.29-0.52C20.11,7.1,20.3,7,20.76,7c0.16,0,0.47,0,0.75,0.17c0.1,0.06,0.29,0.17,0.29,0.51
			C21.8,7.8,21.8,8.04,21.51,8.22 M22.97,8.66c0.05-0.15,0.16-0.45,0.16-1.02c0-0.38,0-1.13-0.63-1.74
			c-0.21-0.21-0.63-0.62-1.75-0.62c-0.15,0-0.45,0-0.81,0.11c-0.12,0.04-0.36,0.11-0.63,0.3c-0.09,0.07-0.27,0.2-0.46,0.47
			c-0.06,0.09-0.19,0.28-0.29,0.61h-0.29V5.36h-1.59v4.21l1.59-0.05v-1h0.27c0.06,0.21,0.17,0.61,0.55,0.98l3.45-0.11
			C22.66,9.27,22.83,9.06,22.97,8.66"/>
		<path class="st0" d="M27.3,8.03c-0.04-0.05-0.11-0.14-0.26-0.22c-0.05-0.03-0.15-0.08-0.29-0.13c0.1-0.06,0.29-0.17,0.47-0.41
			c0.06-0.08,0.18-0.24,0.18-0.65c0-0.13,0-0.4-0.18-0.65c-0.06-0.09-0.18-0.26-0.49-0.41c-0.1-0.05-0.31-0.15-0.71-0.21
			c-0.14-0.02-0.41-0.06-0.86-0.06c-0.21,0-0.62,0-1.06,0.11c-0.15,0.04-0.45,0.11-0.81,0.24v1.28c0.06-0.02,0.17-0.05,0.39-0.09
			c0.07-0.01,0.22-0.04,0.45-0.07c0.08-0.01,0.23-0.03,0.45-0.05c0.07,0,0.22-0.02,0.38-0.02c0.1,0,0.3,0,0.5,0.02
			c0.07,0,0.2,0.01,0.32,0.05c0.04,0.01,0.12,0.04,0.17,0.1c0.02,0.02,0.05,0.06,0.05,0.16c0,0.03,0,0.09-0.05,0.15
			c-0.02,0.02-0.05,0.06-0.13,0.08c-0.03,0.01-0.08,0.03-0.19,0.04c-0.04,0-0.11,0.01-0.23,0.01h-1.35v0.9h1.34
			c0.08,0,0.23,0,0.37,0.03c0.05,0.01,0.14,0.03,0.22,0.08c0.03,0.02,0.08,0.05,0.11,0.1c0.01,0.02,0.03,0.05,0.03,0.1
			c0,0.03,0,0.08-0.04,0.14c-0.01,0.02-0.04,0.06-0.15,0.11c-0.04,0.02-0.11,0.05-0.3,0.07c-0.06,0.01-0.19,0.02-0.5,0.02
			c-0.15,0-0.45,0-0.91-0.03c-0.15-0.01-0.45-0.03-0.91-0.14v0.72l4.09-0.13c0.04-0.1,0.08-0.21,0.09-0.34
			c0.02-0.1,0.05-0.31-0.01-0.52C27.44,8.31,27.4,8.17,27.3,8.03"/>
		<polygon class="st0" points="12.11,10.01 9.71,10.08 9.36,11.45 9.17,11.45 8.83,10.11 6.41,10.19 6.05,13.73 7.63,13.76 
			7.78,12.08 7.97,12.08 8.31,13.77 10.22,13.8 10.56,12.08 10.75,12.08 10.91,13.81 12.5,13.84 		"/>
		<path class="st0" d="M12.97,12.58c-0.06-0.01-0.17-0.03-0.29-0.09v1.35l2.13,0.03c0.14-0.12,0.33-0.32,0.51-0.7l1.51-3.32
			l-1.71,0.05l-0.5,1.39h-0.19l-0.51-1.35L12.28,10l1.25,2.58c-0.03,0.01-0.09,0.02-0.26,0.02C13.22,12.6,13.14,12.6,12.97,12.58"/>
		<polygon class="st0" points="19.65,9.77 17.04,9.85 15.97,13.89 17.62,13.92 18.26,11.68 18.45,11.68 19.09,13.94 20.75,13.97 		
			"/>
		<path class="st0" d="M23.56,12.64c-0.07,0.04-0.21,0.11-0.68,0.11c-0.03,0-0.08,0-0.16-0.01c-0.03,0-0.09-0.01-0.21-0.02v-0.8
			c0.03,0,0.1-0.01,0.18-0.01c0.03,0,0.09,0,0.21,0c0.14,0,0.41,0,0.64,0.09c0.08,0.03,0.23,0.09,0.23,0.31
			C23.77,12.38,23.77,12.53,23.56,12.64 M24.6,13.64c0.19-0.16,0.56-0.48,0.56-1.33c0-0.17,0-0.5-0.17-0.84
			c-0.06-0.11-0.17-0.34-0.47-0.54c-0.1-0.07-0.3-0.2-0.7-0.29c-0.13-0.03-0.4-0.09-0.87-0.09h-0.2c-0.03,0-0.1,0-0.22,0.02V9.68
			l-1.58,0.05v4.24l2.97,0.05C24.14,13.94,24.38,13.83,24.6,13.64"/>
		<polygon class="st0" points="24.93,9.6 24.93,11.09 26.26,11.09 26.26,14.05 27.85,14.08 27.85,11.09 29.24,11.09 29.24,9.47 		
			"/>
		<path class="st0" d="M14.29,16.33h0.26l0.37,1.32h-1L14.29,16.33z M11.13,20.22h2l0.19-0.69h2.2l0.19,0.69h2l-1.65-6.07
			l-3.28-0.05L11.13,20.22z"/>
		<polygon class="st0" points="24.01,14.27 24.01,20.22 26.11,20.22 26.11,18.43 27,18.43 27.76,20.22 30.08,20.22 28.65,16.98 
			29.93,14.36 27.62,14.32 27,15.83 26.11,15.83 26.11,14.3 		"/>
		<polygon class="st0" points="6.99,16.3 8.88,16.3 8.88,20.22 10.98,20.22 10.98,14.07 7.67,14.02 4.89,14.02 4.89,20.22 
			6.99,20.22 		"/>
		<path class="st0" d="M20,16.08c0.07-0.01,0.21-0.02,0.43-0.03c0.07-0.01,0.22-0.02,0.37-0.02c0.22,0,0.66,0,0.97,0.16
			c0.1,0.05,0.31,0.16,0.31,0.47c0,0.11,0,0.32-0.31,0.49c-0.1,0.06-0.31,0.17-0.94,0.17h-0.42c-0.07,0-0.22,0-0.42-0.02V16.08z
			 M17.89,20.22H20v-0.91c0.08,0.01,0.24,0.02,0.41,0.02c0.06,0,0.17,0,0.36,0c0.22,0,0.66,0,1.22-0.17
			c0.18-0.06,0.56-0.17,0.96-0.52c0.14-0.12,0.41-0.35,0.64-0.86c0.08-0.17,0.23-0.52,0.23-1.22c0-0.43,0-1.28-0.81-1.97
			c-0.12-0.1-0.28-0.24-0.55-0.37l-4.57-0.07V20.22z"/>
	</g>
</g>
</svg>
